<?xml version="1.0" standalone="no"?><!DOCTYPE svg PUBLIC "-//W3C//DTD SVG 1.1//EN" "http://www.w3.org/Graphics/SVG/1.1/DTD/svg11.dtd"><svg t="1600785358780" class="icon" viewBox="0 0 1027 1024" version="1.1" xmlns="http://www.w3.org/2000/svg" p-id="1147" width="48.140625" height="48" xmlns:xlink="http://www.w3.org/1999/xlink"><defs><style type="text/css"></style></defs><path d="M426.666667 853.333333C341.333333 853.333333 273.066667 785.066667 273.066667 699.733333s68.266667-153.6 153.6-153.6 153.6 68.266667 153.6 153.6-68.266667 153.6-153.6 153.6z m0-273.066666C361.813333 580.266667 307.2 634.88 307.2 699.733333s54.613333 119.466667 119.466667 119.466667 119.466667-54.613333 119.466666-119.466667-54.613333-119.466667-119.466666-119.466666z" fill="" p-id="1148"></path><path d="M665.6 955.733333c-3.413333 0-10.24 0-13.653333-3.413333l-136.533334-136.533333c-6.826667-6.826667-6.826667-17.066667 0-23.893334s17.066667-6.826667 23.893334 0l136.533333 136.533334c6.826667 6.826667 6.826667 17.066667 0 23.893333 0 3.413333-6.826667 3.413333-10.24 3.413333z" fill="" p-id="1149"></path><path d="M791.893333 785.066667h-126.293333c-10.24 0-17.066667-6.826667-17.066667-17.066667s6.826667-17.066667 17.066667-17.066667h126.293333c109.226667 0 197.973333-88.746667 197.973334-197.973333s-88.746667-197.973333-197.973334-197.973333c-10.24 0-20.48-6.826667-20.48-13.653334-20.48-136.533333-139.946667-238.933333-279.893333-238.933333C334.506667 102.4 204.8 228.693333 204.8 385.706667c0 10.24 0 23.893333 3.413333 40.96 0 3.413333 0 10.24-3.413333 13.653333-3.413333 3.413333-6.826667 3.413333-13.653333 3.413333h-3.413334C102.4 443.733333 34.133333 512 34.133333 597.333333S102.4 750.933333 187.733333 750.933333h34.133334c10.24 0 17.066667 6.826667 17.066666 17.066667s-6.826667 17.066667-17.066666 17.066667h-34.133334c-102.4 0-187.733333-85.333333-187.733333-187.733334 0-98.986667 75.093333-177.493333 174.08-187.733333v-27.306667C170.666667 208.213333 314.026667 68.266667 491.52 68.266667c153.6 0 283.306667 109.226667 314.026667 256 122.88 6.826667 221.866667 105.813333 221.866666 228.693333C1024 682.666667 918.186667 785.066667 791.893333 785.066667z" fill="" p-id="1150"></path></svg>